<svg xmlns="http://www.w3.org/2000/svg" version="1.0" viewBox="108.14 86.27 736.61 617.6">
    <path fill="#fff" d="M628.5 87.5c-34.7 4.2-62.8 15-91 34.8-31.4 22.2-55.3 54-68.4 91.1-3.9 10.9-4 13.6-.2 3.9 3.7-9.3 10.7-22.3 18.6-34.2 29.8-45.1 82.2-76.3 138-82.1 20-2.1 46.4 0 67.5 5.5 22.2 5.7 49.4 19.8 67.5 35 35.1 29.2 55.6 63.6 65.1 109 2.4 11.6 2.7 15.1 2.7 33 0 26.8-3.1 44.8-11.6 66.5-11.4 29-25.5 49.7-48.2 70.8-12.1 11.2-18.7 16.2-31.9 24-17.7 10.4-39.5 18.8-60.1 23.2-17 3.6-50.2 3.8-71.5.5-3.1-.5-2.9-.3 1 1 21.1 7.1 59.4 8 87.5 1.9 19.4-4.2 42.9-13.8 60.5-24.7 15-9.4 34.7-26.6 46.3-40.5 29.8-35.7 46.7-86 44.2-131.7-3.1-59.1-28.3-108.8-73.5-145.2-24.4-19.7-49.3-31.5-80.6-38.4-21.4-4.7-41.6-5.8-61.9-3.4zM350.3 134.7c-17.8 12.1-37.5 30.9-48.6 46.4-3.7 5.2-9.6 15.2-13.2 22.4-7.8 15.5-11.3 28-12.3 44l-.7 11-11.5 3.7c-29.2 9.5-52.9 23.2-67.4 38.8-7.2 7.9-9.5 11.9-3.7 6.7 15.6-14 45.7-27.5 76.6-34.2 6.6-1.4 13.1-3.1 14.3-3.7 3.5-1.8 5-5.5 5.7-13.8 3-34.6 17.1-60.4 50-92.1 6-5.7 15.8-13.9 16.8-13.9.3 0 .1 1.7-.5 3.7-1.9 7.7-2.2 35.1-.4 46.9 2.1 14.1 7.2 32 13.1 45.7 4.2 10 10.2 21.7 11 21.7.2 0-.5-2.6-1.6-5.8-6.8-19.6-10.8-42.3-11.6-64.7-.6-19.3.7-32 4.8-46.2 2.9-10.2 2.6-13.8-1.5-17.9-2.9-2.9-4.1-3.4-7.9-3.4-3.8 0-5.7.8-11.4 4.7z"/>
    <path fill="#fff" d="M426.8 168.4c-16.3 7.1-32.8 20.3-41.7 33.5-5.1 7.5-10.8 19.3-11.7 24.1l-.6 3.5 3.2-4c6.4-7.9 21.2-21.4 29.8-27.3 7.4-5.1 20.1-12.2 21.6-12.2.3 0-1.3 3.3-3.5 7.4-8.6 16.1-12.5 31.2-11.7 46.4.5 11.4 2 13.6 3.6 5.2 2.3-12.4 12.3-32.2 26.4-51.9 7.2-10.1 8.1-11.8 8-15.6 0-5.4-1.5-8.1-5.5-10.5-4.6-2.8-9.1-2.5-17.9 1.4zM390.1 258c.8.5 10.3 4.2 21 8.4 23.7 9.1 30.2 12 44.8 19.9 13.6 7.3 20.3 13 22.7 19.2 2 5.4 1.5 12.2-1.4 18.7-3.9 8.6-4.2 8 5.5 14.4 4.8 3.2 18.5 10.9 30.4 17 11.9 6.1 24.3 12.9 27.5 15.2l6 4.2h13.1c12.7 0 20.8 1 26.6 3.2 3.2 1.2 3.7 5 1.2 9.7-2 4-10.7 11.4-17.8 15.2-10.1 5.4-14.8 11.9-16.3 22.6-.6 5-.8 5.3-4.2 5.9-3.3.6-28.8.2-76.3-1.2-37.6-1.2-61.5 3.4-84.9 16.3-20.9 11.5-39.3 31.3-46.4 50.1-3.8 10-5.8 24-4 28.6 1.1 3 2.4.5 2.4-4.7.1-22.2 20.9-49.1 49.1-63.2 28.3-14.2 52-16.6 113.4-11.1 20 1.8 45.3 2.1 52.6.5 8.6-1.9 14.9-10.1 14.9-19.5 0-4.3 2.4-7.1 9.1-10.4 7.8-4 20.1-15.7 23.4-22.3 1.9-4 2.5-6.6 2.5-11.9 0-7.9-1.3-11.1-6.4-15.6-5.7-5-12-6.4-31.1-7.2l-17-.6-8.8-5.1c-4.8-2.8-15.2-7.9-23-11.4-18.3-8.2-29.3-14.3-28.8-16 .2-.8.6-5.5.9-10.6.4-8.1.2-9.7-2-14.5-4.9-10.5-15.1-17.8-37.3-26.6-13.5-5.3-26.1-9.4-44-14.2-14.7-3.9-20.8-5-17.4-3z"/>
    <path fill="#fff" d="M414.7 297.3c-9.5 3.3-10.1 4.3-2.8 5.1 3.2.4 7.9 1.2 10.2 1.9l4.3 1.3-.3 4.7c-.9 14.5 8.7 24.8 21.4 23.2 7.5-.9 17-5.7 19.5-9.7 4.4-7.2 1.7-14.2-7.3-19.7-10.9-6.4-17.3-8.4-28.2-8.8-8.5-.3-11 0-16.8 2zM205 314.1c-17.7 10.9-40.3 31.7-53.3 49.1-24.1 32.2-38.9 71.2-42.8 113-1.5 16.4-.7 50.5 1.6 65.8 1.9 13 7.4 35.7 9.9 41 1.6 3.4 1.6 3.5 1.1.5-.3-1.7-.8-15.2-1.1-30-2-84.3 13-142 50.8-195.7 10-14.1 17.8-23.6 30.1-36.5 6-6.2 10.8-11.3 10.6-11.2-.2 0-3.3 1.8-6.9 4z"/>
    <path fill="#fff" d="M136.2 461.7c-4.2 22.8-5.4 39.6-4.9 68.8.6 29.8 1.9 40.1 7.7 58.6 13.1 42.3 38.1 71.9 75.3 89.3 36.5 17.1 66.4 24.2 106.4 25.3 22.6.6 35.6-.3 54.3-3.9 27.4-5.1 36.8-8.9 104-41.3 52.5-25.3 75.6-34.3 105.1-40.9 45.1-10.1 124.3-9.5 196.8 1.5 7.3 1.1 13.5 1.9 13.7 1.6.7-.6-30.4-7.5-48.6-10.6-43.7-7.6-78.3-10.6-114.4-9.8-57.4 1.3-86.2 9.5-169.5 48.6-50.8 23.9-64.1 29.1-85 33.5-46.9 9.9-95.7 6.3-141.1-10.4-12-4.4-27.6-12-36-17.5-9.8-6.5-25.1-21.3-32.2-31.2-10.8-15-20.4-37.2-25.2-58.3-6.1-27.2-7.9-75.9-4-109.6 1.1-9.2-.1-6-2.4 6.3z"/>
    <path fill="#fff" d="M156.5 498.7c-1.8 23.3 5 55.7 17 81.1 10 21.1 25.6 39.1 43 49.5 9.3 5.5 29.7 11.8 22.5 6.9-31.4-21.5-52.5-57.1-74.5-125.5-3.7-11.4-6.8-20.7-7-20.7-.2 0-.6 3.9-1 8.7z"/>
</svg>
